# xmcd CD database file
#
# Track frame offsets:
#	150
#	13464
#	21409
#	43528
#	56675
#	59870
#	73952
#	87439
#	97383
#	116493
#	132073
#	151929
#	175994
#	206861
#	222487
#	233686
#	250703
#	280735
#
# Disc length: 3971 seconds
#
# Revision: 0
# Processed by: cddbd v1.5.1PL0 Copyright (c) Steve Scherf et al.
# Submitted via: CDex 1.51
#
DISCID=190f8112
DTITLE=Son House - Lowdown Dirty Dog Blues  [1941 and 1942]
DYEAR=2000
DGENRE=Blues
TTITLE0=Depot Blues
TTITLE1=Am I Right or Wrong?
TTITLE2=Low Down Dirty Dog Blues
TTITLE3=American Defense
TTITLE4=Special Rider Blues N°.1
TTITLE5=Special Rider Blues N°.2
TTITLE6=Walking Blues
TTITLE7=County Farm Blues
TTITLE8=The Pony Blues
TTITLE9=The Jinx Blues N°.1
TTITLE10=The Jinx Blues N°.2
TTITLE11=Delta Blues
TTITLE12=Government Fleet Blues
TTITLE13=Shetland Pony Blues
TTITLE14=Camp Hollers
TTITLE15=Levee Camp Blues
TTITLE16=Walking Blues
TTITLE17=Fo' Clock Blues
EXTD=YEAR: 2000
EXTT0=
EXTT1=
EXTT2=
EXTT3=
EXTT4=
EXTT5=
EXTT6=
EXTT7=
EXTT8=
EXTT9=
EXTT10=
EXTT11=
EXTT12=
EXTT13=
EXTT14=
EXTT15=
EXTT16=
EXTT17=
PLAYORDER=
